<?xml version="1.0" encoding="UTF-8"?>
<svg xmlns="http://www.w3.org/2000/svg" viewBox="0 0 3150 3150" width="3150" height="3150" data-set="86e92aa3-a394-4a75-90ad-f0eb196222a5" data-version="1" data-squares="45" data-feet-per-square="5">
<metadata>{&quot;name&quot;:&quot;Wyvern Tor&quot;,&quot;kind&quot;:&quot;battle&quot;,&quot;slug&quot;:&quot;vtt-pack-wyvern-tor-copy&quot;,&quot;squares&quot;:45,&quot;picture&quot;:[3150,3150],&quot;layers&quot;:[&quot;walls&quot;,&quot;doors&quot;,&quot;fences&quot;,&quot;difficult&quot;,&quot;pins&quot;,&quot;grid&quot;]}</metadata>
<rect width="3150" height="3150" fill="#ffffff"/>
<g id="grid" stroke="#d6d6d6" stroke-width="1" fill="none"><line x1="70" y1="0" x2="70" y2="3150"/><line x1="140" y1="0" x2="140" y2="3150"/><line x1="210" y1="0" x2="210" y2="3150"/><line x1="280" y1="0" x2="280" y2="3150"/><line x1="350" y1="0" x2="350" y2="3150"/><line x1="420" y1="0" x2="420" y2="3150"/><line x1="490" y1="0" x2="490" y2="3150"/><line x1="560" y1="0" x2="560" y2="3150"/><line x1="630" y1="0" x2="630" y2="3150"/><line x1="700" y1="0" x2="700" y2="3150"/><line x1="770" y1="0" x2="770" y2="3150"/><line x1="840" y1="0" x2="840" y2="3150"/><line x1="910" y1="0" x2="910" y2="3150"/><line x1="980" y1="0" x2="980" y2="3150"/><line x1="1050" y1="0" x2="1050" y2="3150"/><line x1="1120" y1="0" x2="1120" y2="3150"/><line x1="1190" y1="0" x2="1190" y2="3150"/><line x1="1260" y1="0" x2="1260" y2="3150"/><line x1="1330" y1="0" x2="1330" y2="3150"/><line x1="1400" y1="0" x2="1400" y2="3150"/><line x1="1470" y1="0" x2="1470" y2="3150"/><line x1="1540" y1="0" x2="1540" y2="3150"/><line x1="1610" y1="0" x2="1610" y2="3150"/><line x1="1680" y1="0" x2="1680" y2="3150"/><line x1="1750" y1="0" x2="1750" y2="3150"/><line x1="1820" y1="0" x2="1820" y2="3150"/><line x1="1890" y1="0" x2="1890" y2="3150"/><line x1="1960" y1="0" x2="1960" y2="3150"/><line x1="2030" y1="0" x2="2030" y2="3150"/><line x1="2100" y1="0" x2="2100" y2="3150"/><line x1="2170" y1="0" x2="2170" y2="3150"/><line x1="2240" y1="0" x2="2240" y2="3150"/><line x1="2310" y1="0" x2="2310" y2="3150"/><line x1="2380" y1="0" x2="2380" y2="3150"/><line x1="2450" y1="0" x2="2450" y2="3150"/><line x1="2520" y1="0" x2="2520" y2="3150"/><line x1="2590" y1="0" x2="2590" y2="3150"/><line x1="2660" y1="0" x2="2660" y2="3150"/><line x1="2730" y1="0" x2="2730" y2="3150"/><line x1="2800" y1="0" x2="2800" y2="3150"/><line x1="2870" y1="0" x2="2870" y2="3150"/><line x1="2940" y1="0" x2="2940" y2="3150"/><line x1="3010" y1="0" x2="3010" y2="3150"/><line x1="3080" y1="0" x2="3080" y2="3150"/><line x1="0" y1="70" x2="3150" y2="70"/><line x1="0" y1="140" x2="3150" y2="140"/><line x1="0" y1="210" x2="3150" y2="210"/><line x1="0" y1="280" x2="3150" y2="280"/><line x1="0" y1="350" x2="3150" y2="350"/><line x1="0" y1="420" x2="3150" y2="420"/><line x1="0" y1="490" x2="3150" y2="490"/><line x1="0" y1="560" x2="3150" y2="560"/><line x1="0" y1="630" x2="3150" y2="630"/><line x1="0" y1="700" x2="3150" y2="700"/><line x1="0" y1="770" x2="3150" y2="770"/><line x1="0" y1="840" x2="3150" y2="840"/><line x1="0" y1="910" x2="3150" y2="910"/><line x1="0" y1="980" x2="3150" y2="980"/><line x1="0" y1="1050" x2="3150" y2="1050"/><line x1="0" y1="1120" x2="3150" y2="1120"/><line x1="0" y1="1190" x2="3150" y2="1190"/><line x1="0" y1="1260" x2="3150" y2="1260"/><line x1="0" y1="1330" x2="3150" y2="1330"/><line x1="0" y1="1400" x2="3150" y2="1400"/><line x1="0" y1="1470" x2="3150" y2="1470"/><line x1="0" y1="1540" x2="3150" y2="1540"/><line x1="0" y1="1610" x2="3150" y2="1610"/><line x1="0" y1="1680" x2="3150" y2="1680"/><line x1="0" y1="1750" x2="3150" y2="1750"/><line x1="0" y1="1820" x2="3150" y2="1820"/><line x1="0" y1="1890" x2="3150" y2="1890"/><line x1="0" y1="1960" x2="3150" y2="1960"/><line x1="0" y1="2030" x2="3150" y2="2030"/><line x1="0" y1="2100" x2="3150" y2="2100"/><line x1="0" y1="2170" x2="3150" y2="2170"/><line x1="0" y1="2240" x2="3150" y2="2240"/><line x1="0" y1="2310" x2="3150" y2="2310"/><line x1="0" y1="2380" x2="3150" y2="2380"/><line x1="0" y1="2450" x2="3150" y2="2450"/><line x1="0" y1="2520" x2="3150" y2="2520"/><line x1="0" y1="2590" x2="3150" y2="2590"/><line x1="0" y1="2660" x2="3150" y2="2660"/><line x1="0" y1="2730" x2="3150" y2="2730"/><line x1="0" y1="2800" x2="3150" y2="2800"/><line x1="0" y1="2870" x2="3150" y2="2870"/><line x1="0" y1="2940" x2="3150" y2="2940"/><line x1="0" y1="3010" x2="3150" y2="3010"/><line x1="0" y1="3080" x2="3150" y2="3080"/></g>
<g id="difficult" fill="#f3e3b8" stroke="none"></g>
<g id="fences" stroke="#8a5a2b" stroke-width="5.9" stroke-dasharray="14,10.5" stroke-linecap="butt"></g>
<g id="walls" stroke="#111111" stroke-width="9.8" stroke-linecap="round"><line x1="0" y1="1539.3" x2="210" y2="1523"/><line x1="210" y1="1523" x2="420" y2="1479"/><line x1="420" y1="1479" x2="604" y2="1391"/><line x1="604" y1="1391" x2="893" y2="1304"/><line x1="893" y1="1304" x2="1085" y2="1251"/><line x1="1085" y1="1251" x2="1278" y2="1199"/><line x1="1278" y1="1199" x2="1391" y2="1085"/><line x1="1391" y1="1085" x2="1435" y2="945"/><line x1="1435" y1="945" x2="1426" y2="823"/><line x1="1426" y1="823" x2="1374" y2="726"/><line x1="1374" y1="726" x2="1295" y2="674"/><line x1="1295" y1="674" x2="1225" y2="648"/><line x1="1225" y1="648" x2="1155" y2="665"/><line x1="1155" y1="665" x2="1129" y2="761"/><line x1="1129" y1="761" x2="1164" y2="840"/><line x1="1164" y1="840" x2="1181" y2="963"/><line x1="1181" y1="963" x2="1146" y2="1059"/><line x1="1146" y1="1059" x2="1076" y2="1094"/><line x1="1076" y1="1094" x2="910" y2="1094"/><line x1="910" y1="1094" x2="761" y2="1094"/><line x1="761" y1="1094" x2="665" y2="1085"/><line x1="665" y1="1085" x2="621" y2="1041"/><line x1="621" y1="1041" x2="595" y2="1024"/><line x1="595" y1="1024" x2="569" y2="1129"/><line x1="569" y1="1129" x2="490" y2="1234"/><line x1="490" y1="1234" x2="385" y2="1251"/><line x1="385" y1="1251" x2="385" y2="1339"/><line x1="385" y1="1339" x2="341" y2="1391"/><line x1="341" y1="1391" x2="263" y2="1426"/><line x1="263" y1="1426" x2="219" y2="1400"/><line x1="219" y1="1400" x2="158" y2="1409"/><line x1="158" y1="1409" x2="105" y2="1400"/><line x1="105" y1="1400" x2="70" y2="1400"/><line x1="70" y1="1400" x2="53" y2="1348"/><line x1="53" y1="1348" x2="18" y2="1216"/><line x1="18" y1="1216" x2="26" y2="1129"/><line x1="26" y1="1129" x2="18" y2="936"/><line x1="18" y1="936" x2="44" y2="823"/><line x1="44" y1="823" x2="70" y2="744"/><line x1="70" y1="744" x2="44" y2="578"/><line x1="44" y1="578" x2="61" y2="438"/><line x1="61" y1="438" x2="131" y2="368"/><line x1="131" y1="368" x2="184" y2="446"/><line x1="184" y1="446" x2="236" y2="438"/><line x1="236" y1="438" x2="245" y2="394"/><line x1="245" y1="394" x2="271" y2="245"/><line x1="271" y1="245" x2="621" y2="96"/><line x1="621" y1="96" x2="744" y2="105"/><line x1="744" y1="105" x2="858" y2="53"/><line x1="858" y1="53" x2="936" y2="96"/><line x1="936" y1="96" x2="963" y2="114"/><line x1="963" y1="114" x2="1041" y2="114"/><line x1="1041" y1="114" x2="1094" y2="18"/><line x1="1094" y1="18" x2="1208" y2="61"/><line x1="1208" y1="61" x2="1348" y2="35"/><line x1="1348" y1="35" x2="1540" y2="61"/><line x1="1540" y1="61" x2="1558" y2="140"/><line x1="1558" y1="140" x2="1593" y2="166"/><line x1="1593" y1="166" x2="1663" y2="298"/><line x1="1663" y1="298" x2="1645" y2="403"/><line x1="1645" y1="403" x2="1566" y2="455"/><line x1="1566" y1="455" x2="1566" y2="578"/><line x1="1566" y1="578" x2="1663" y2="578"/><line x1="1663" y1="578" x2="1803" y2="508"/><line x1="1803" y1="508" x2="1890" y2="315"/><line x1="1890" y1="315" x2="1899" y2="140"/><line x1="1899" y1="140" x2="1864" y2="61"/><line x1="1864" y1="61" x2="1826.8" y2="0"/><line x1="1374" y1="726" x2="1566" y2="578"/></g>
<g id="doors" stroke="#2f8f4e" stroke-width="7.8" stroke-linecap="butt"></g>
<g id="pins" fill="#d33" stroke="#ffffff" stroke-width="2"><g data-name="start"><circle cx="2967" cy="3025" r="12.6" class="start"/><circle cx="2967" cy="3025" r="140" class="area"/></g><g data-name="orc-sentry"><circle cx="1563" cy="1160" r="12.6"/></g><g data-name="cave-mouth"><circle cx="1446" cy="601" r="12.6"/></g><g data-name="orc-camp"><circle cx="528" cy="1011" r="12.6"/></g></g>
</svg>
