<?xml version="1.0" encoding="UTF-8"?>
<svg xmlns="http://www.w3.org/2000/svg" viewBox="0 0 2648 3625" width="2648" height="3625" data-set="c59bd7a4-68e1-4768-9f52-dfa80df8e6b1" data-version="1" data-squares="53" data-feet-per-square="5">
<metadata>{&quot;name&quot;:&quot;Sword Coast&quot;,&quot;kind&quot;:&quot;regional&quot;,&quot;slug&quot;:&quot;dnd-northswordcoast&quot;,&quot;squares&quot;:53,&quot;picture&quot;:[2648,3625],&quot;layers&quot;:[&quot;walls&quot;,&quot;doors&quot;,&quot;fences&quot;,&quot;difficult&quot;,&quot;pins&quot;,&quot;grid&quot;]}</metadata>
<rect width="2648" height="3625" fill="#ffffff"/>
<g id="grid" stroke="#d6d6d6" stroke-width="1" fill="none"><line x1="50" y1="0" x2="50" y2="3625"/><line x1="99.9" y1="0" x2="99.9" y2="3625"/><line x1="149.9" y1="0" x2="149.9" y2="3625"/><line x1="199.8" y1="0" x2="199.8" y2="3625"/><line x1="249.8" y1="0" x2="249.8" y2="3625"/><line x1="299.8" y1="0" x2="299.8" y2="3625"/><line x1="349.7" y1="0" x2="349.7" y2="3625"/><line x1="399.7" y1="0" x2="399.7" y2="3625"/><line x1="449.7" y1="0" x2="449.7" y2="3625"/><line x1="499.6" y1="0" x2="499.6" y2="3625"/><line x1="549.6" y1="0" x2="549.6" y2="3625"/><line x1="599.5" y1="0" x2="599.5" y2="3625"/><line x1="649.5" y1="0" x2="649.5" y2="3625"/><line x1="699.5" y1="0" x2="699.5" y2="3625"/><line x1="749.4" y1="0" x2="749.4" y2="3625"/><line x1="799.4" y1="0" x2="799.4" y2="3625"/><line x1="849.4" y1="0" x2="849.4" y2="3625"/><line x1="899.3" y1="0" x2="899.3" y2="3625"/><line x1="949.3" y1="0" x2="949.3" y2="3625"/><line x1="999.2" y1="0" x2="999.2" y2="3625"/><line x1="1049.2" y1="0" x2="1049.2" y2="3625"/><line x1="1099.2" y1="0" x2="1099.2" y2="3625"/><line x1="1149.1" y1="0" x2="1149.1" y2="3625"/><line x1="1199.1" y1="0" x2="1199.1" y2="3625"/><line x1="1249.1" y1="0" x2="1249.1" y2="3625"/><line x1="1299" y1="0" x2="1299" y2="3625"/><line x1="1349" y1="0" x2="1349" y2="3625"/><line x1="1398.9" y1="0" x2="1398.9" y2="3625"/><line x1="1448.9" y1="0" x2="1448.9" y2="3625"/><line x1="1498.9" y1="0" x2="1498.9" y2="3625"/><line x1="1548.8" y1="0" x2="1548.8" y2="3625"/><line x1="1598.8" y1="0" x2="1598.8" y2="3625"/><line x1="1648.8" y1="0" x2="1648.8" y2="3625"/><line x1="1698.7" y1="0" x2="1698.7" y2="3625"/><line x1="1748.7" y1="0" x2="1748.7" y2="3625"/><line x1="1798.6" y1="0" x2="1798.6" y2="3625"/><line x1="1848.6" y1="0" x2="1848.6" y2="3625"/><line x1="1898.6" y1="0" x2="1898.6" y2="3625"/><line x1="1948.5" y1="0" x2="1948.5" y2="3625"/><line x1="1998.5" y1="0" x2="1998.5" y2="3625"/><line x1="2048.5" y1="0" x2="2048.5" y2="3625"/><line x1="2098.4" y1="0" x2="2098.4" y2="3625"/><line x1="2148.4" y1="0" x2="2148.4" y2="3625"/><line x1="2198.3" y1="0" x2="2198.3" y2="3625"/><line x1="2248.3" y1="0" x2="2248.3" y2="3625"/><line x1="2298.3" y1="0" x2="2298.3" y2="3625"/><line x1="2348.2" y1="0" x2="2348.2" y2="3625"/><line x1="2398.2" y1="0" x2="2398.2" y2="3625"/><line x1="2448.2" y1="0" x2="2448.2" y2="3625"/><line x1="2498.1" y1="0" x2="2498.1" y2="3625"/><line x1="2548.1" y1="0" x2="2548.1" y2="3625"/><line x1="2598" y1="0" x2="2598" y2="3625"/><line x1="0" y1="50" x2="2648" y2="50"/><line x1="0" y1="99.9" x2="2648" y2="99.9"/><line x1="0" y1="149.9" x2="2648" y2="149.9"/><line x1="0" y1="199.8" x2="2648" y2="199.8"/><line x1="0" y1="249.8" x2="2648" y2="249.8"/><line x1="0" y1="299.8" x2="2648" y2="299.8"/><line x1="0" y1="349.7" x2="2648" y2="349.7"/><line x1="0" y1="399.7" x2="2648" y2="399.7"/><line x1="0" y1="449.7" x2="2648" y2="449.7"/><line x1="0" y1="499.6" x2="2648" y2="499.6"/><line x1="0" y1="549.6" x2="2648" y2="549.6"/><line x1="0" y1="599.5" x2="2648" y2="599.5"/><line x1="0" y1="649.5" x2="2648" y2="649.5"/><line x1="0" y1="699.5" x2="2648" y2="699.5"/><line x1="0" y1="749.4" x2="2648" y2="749.4"/><line x1="0" y1="799.4" x2="2648" y2="799.4"/><line x1="0" y1="849.4" x2="2648" y2="849.4"/><line x1="0" y1="899.3" x2="2648" y2="899.3"/><line x1="0" y1="949.3" x2="2648" y2="949.3"/><line x1="0" y1="999.2" x2="2648" y2="999.2"/><line x1="0" y1="1049.2" x2="2648" y2="1049.2"/><line x1="0" y1="1099.2" x2="2648" y2="1099.2"/><line x1="0" y1="1149.1" x2="2648" y2="1149.1"/><line x1="0" y1="1199.1" x2="2648" y2="1199.1"/><line x1="0" y1="1249.1" x2="2648" y2="1249.1"/><line x1="0" y1="1299" x2="2648" y2="1299"/><line x1="0" y1="1349" x2="2648" y2="1349"/><line x1="0" y1="1398.9" x2="2648" y2="1398.9"/><line x1="0" y1="1448.9" x2="2648" y2="1448.9"/><line x1="0" y1="1498.9" x2="2648" y2="1498.9"/><line x1="0" y1="1548.8" x2="2648" y2="1548.8"/><line x1="0" y1="1598.8" x2="2648" y2="1598.8"/><line x1="0" y1="1648.8" x2="2648" y2="1648.8"/><line x1="0" y1="1698.7" x2="2648" y2="1698.7"/><line x1="0" y1="1748.7" x2="2648" y2="1748.7"/><line x1="0" y1="1798.6" x2="2648" y2="1798.6"/><line x1="0" y1="1848.6" x2="2648" y2="1848.6"/><line x1="0" y1="1898.6" x2="2648" y2="1898.6"/><line x1="0" y1="1948.5" x2="2648" y2="1948.5"/><line x1="0" y1="1998.5" x2="2648" y2="1998.5"/><line x1="0" y1="2048.5" x2="2648" y2="2048.5"/><line x1="0" y1="2098.4" x2="2648" y2="2098.4"/><line x1="0" y1="2148.4" x2="2648" y2="2148.4"/><line x1="0" y1="2198.3" x2="2648" y2="2198.3"/><line x1="0" y1="2248.3" x2="2648" y2="2248.3"/><line x1="0" y1="2298.3" x2="2648" y2="2298.3"/><line x1="0" y1="2348.2" x2="2648" y2="2348.2"/><line x1="0" y1="2398.2" x2="2648" y2="2398.2"/><line x1="0" y1="2448.2" x2="2648" y2="2448.2"/><line x1="0" y1="2498.1" x2="2648" y2="2498.1"/><line x1="0" y1="2548.1" x2="2648" y2="2548.1"/><line x1="0" y1="2598" x2="2648" y2="2598"/><line x1="0" y1="2648" x2="2648" y2="2648"/><line x1="0" y1="2698" x2="2648" y2="2698"/><line x1="0" y1="2747.9" x2="2648" y2="2747.9"/><line x1="0" y1="2797.9" x2="2648" y2="2797.9"/><line x1="0" y1="2847.8" x2="2648" y2="2847.8"/><line x1="0" y1="2897.8" x2="2648" y2="2897.8"/><line x1="0" y1="2947.8" x2="2648" y2="2947.8"/><line x1="0" y1="2997.7" x2="2648" y2="2997.7"/><line x1="0" y1="3047.7" x2="2648" y2="3047.7"/><line x1="0" y1="3097.7" x2="2648" y2="3097.7"/><line x1="0" y1="3147.6" x2="2648" y2="3147.6"/><line x1="0" y1="3197.6" x2="2648" y2="3197.6"/><line x1="0" y1="3247.5" x2="2648" y2="3247.5"/><line x1="0" y1="3297.5" x2="2648" y2="3297.5"/><line x1="0" y1="3347.5" x2="2648" y2="3347.5"/><line x1="0" y1="3397.4" x2="2648" y2="3397.4"/><line x1="0" y1="3447.4" x2="2648" y2="3447.4"/><line x1="0" y1="3497.4" x2="2648" y2="3497.4"/><line x1="0" y1="3547.3" x2="2648" y2="3547.3"/><line x1="0" y1="3597.3" x2="2648" y2="3597.3"/></g>
<g id="difficult" fill="#f3e3b8" stroke="none"></g>
<g id="fences" stroke="#8a5a2b" stroke-width="4.2" stroke-dasharray="10,7.5" stroke-linecap="butt"></g>
<g id="walls" stroke="#111111" stroke-width="7" stroke-linecap="round"></g>
<g id="doors" stroke="#2f8f4e" stroke-width="5.6" stroke-linecap="butt"></g>
<g id="pins" fill="#d33" stroke="#ffffff" stroke-width="2"></g>
</svg>
