<?xml version="1.0" encoding="UTF-8"?>
<svg xmlns="http://www.w3.org/2000/svg" viewBox="0 0 4200 2800" width="4200" height="2800" data-set="e2162279-8374-49f8-b10c-e3ea66c4bf66" data-version="3" data-squares="30" data-feet-per-square="5">
<metadata>{&quot;name&quot;:&quot;Thundertree&quot;,&quot;kind&quot;:&quot;battle&quot;,&quot;slug&quot;:&quot;lmop-thundertree&quot;,&quot;squares&quot;:30,&quot;picture&quot;:[4200,2800],&quot;layers&quot;:[&quot;walls&quot;,&quot;doors&quot;,&quot;fences&quot;,&quot;difficult&quot;,&quot;pins&quot;,&quot;grid&quot;]}</metadata>
<rect width="4200" height="2800" fill="#ffffff"/>
<g id="grid" stroke="#d6d6d6" stroke-width="1" fill="none"><line x1="140" y1="0" x2="140" y2="2800"/><line x1="280" y1="0" x2="280" y2="2800"/><line x1="420" y1="0" x2="420" y2="2800"/><line x1="560" y1="0" x2="560" y2="2800"/><line x1="700" y1="0" x2="700" y2="2800"/><line x1="840" y1="0" x2="840" y2="2800"/><line x1="980" y1="0" x2="980" y2="2800"/><line x1="1120" y1="0" x2="1120" y2="2800"/><line x1="1260" y1="0" x2="1260" y2="2800"/><line x1="1400" y1="0" x2="1400" y2="2800"/><line x1="1540" y1="0" x2="1540" y2="2800"/><line x1="1680" y1="0" x2="1680" y2="2800"/><line x1="1820" y1="0" x2="1820" y2="2800"/><line x1="1960" y1="0" x2="1960" y2="2800"/><line x1="2100" y1="0" x2="2100" y2="2800"/><line x1="2240" y1="0" x2="2240" y2="2800"/><line x1="2380" y1="0" x2="2380" y2="2800"/><line x1="2520" y1="0" x2="2520" y2="2800"/><line x1="2660" y1="0" x2="2660" y2="2800"/><line x1="2800" y1="0" x2="2800" y2="2800"/><line x1="2940" y1="0" x2="2940" y2="2800"/><line x1="3080" y1="0" x2="3080" y2="2800"/><line x1="3220" y1="0" x2="3220" y2="2800"/><line x1="3360" y1="0" x2="3360" y2="2800"/><line x1="3500" y1="0" x2="3500" y2="2800"/><line x1="3640" y1="0" x2="3640" y2="2800"/><line x1="3780" y1="0" x2="3780" y2="2800"/><line x1="3920" y1="0" x2="3920" y2="2800"/><line x1="4060" y1="0" x2="4060" y2="2800"/><line x1="0" y1="140" x2="4200" y2="140"/><line x1="0" y1="280" x2="4200" y2="280"/><line x1="0" y1="420" x2="4200" y2="420"/><line x1="0" y1="560" x2="4200" y2="560"/><line x1="0" y1="700" x2="4200" y2="700"/><line x1="0" y1="840" x2="4200" y2="840"/><line x1="0" y1="980" x2="4200" y2="980"/><line x1="0" y1="1120" x2="4200" y2="1120"/><line x1="0" y1="1260" x2="4200" y2="1260"/><line x1="0" y1="1400" x2="4200" y2="1400"/><line x1="0" y1="1540" x2="4200" y2="1540"/><line x1="0" y1="1680" x2="4200" y2="1680"/><line x1="0" y1="1820" x2="4200" y2="1820"/><line x1="0" y1="1960" x2="4200" y2="1960"/><line x1="0" y1="2100" x2="4200" y2="2100"/><line x1="0" y1="2240" x2="4200" y2="2240"/><line x1="0" y1="2380" x2="4200" y2="2380"/><line x1="0" y1="2520" x2="4200" y2="2520"/><line x1="0" y1="2660" x2="4200" y2="2660"/></g>
<g id="difficult" fill="#f3e3b8" stroke="none"><rect x="1" y="1" width="50" height="50"/></g>
<g id="fences" stroke="#8a5a2b" stroke-width="11.8" stroke-dasharray="28,21" stroke-linecap="butt"></g>
<g id="walls" stroke="#111111" stroke-width="19.6" stroke-linecap="round"></g>
<g id="doors" stroke="#2f8f4e" stroke-width="15.7" stroke-linecap="butt"></g>
<g id="pins" fill="#d33" stroke="#ffffff" stroke-width="2"><g data-name="guard-post"><circle cx="10" cy="10" r="25.2"/></g><g data-name="guard-post"><circle cx="40" cy="40" r="25.2"/><circle cx="40" cy="40" r="210" class="area" fill="none" stroke="#d33" stroke-width="2" stroke-dasharray="10,8"/></g><g data-name="start"><circle cx="5" cy="5" r="25.2" class="start" fill="#2c9"/><circle cx="5" cy="5" r="280" class="area" fill="none" stroke="#d33" stroke-width="2" stroke-dasharray="10,8"/></g></g>
</svg>
