<?xml version="1.0" encoding="UTF-8"?>
<svg xmlns="http://www.w3.org/2000/svg" viewBox="0 0 1536 1024" width="1536" height="1024" data-set="80409ae2-1254-47e7-9cd4-4e4679f6a634" data-version="3" data-squares="30" data-feet-per-square="5">
<metadata>{&quot;name&quot;:&quot;Crypt Method B&quot;,&quot;kind&quot;:&quot;battle&quot;,&quot;slug&quot;:&quot;vtt-crypt-method-b&quot;,&quot;squares&quot;:30,&quot;picture&quot;:[1536,1024],&quot;layers&quot;:[&quot;walls&quot;,&quot;doors&quot;,&quot;fences&quot;,&quot;difficult&quot;,&quot;pins&quot;,&quot;grid&quot;]}</metadata>
<rect width="1536" height="1024" fill="#ffffff"/>
<g id="grid" stroke="#d6d6d6" stroke-width="1" fill="none"><line x1="51.2" y1="0" x2="51.2" y2="1024"/><line x1="102.4" y1="0" x2="102.4" y2="1024"/><line x1="153.6" y1="0" x2="153.6" y2="1024"/><line x1="204.8" y1="0" x2="204.8" y2="1024"/><line x1="256" y1="0" x2="256" y2="1024"/><line x1="307.2" y1="0" x2="307.2" y2="1024"/><line x1="358.4" y1="0" x2="358.4" y2="1024"/><line x1="409.6" y1="0" x2="409.6" y2="1024"/><line x1="460.8" y1="0" x2="460.8" y2="1024"/><line x1="512" y1="0" x2="512" y2="1024"/><line x1="563.2" y1="0" x2="563.2" y2="1024"/><line x1="614.4" y1="0" x2="614.4" y2="1024"/><line x1="665.6" y1="0" x2="665.6" y2="1024"/><line x1="716.8" y1="0" x2="716.8" y2="1024"/><line x1="768" y1="0" x2="768" y2="1024"/><line x1="819.2" y1="0" x2="819.2" y2="1024"/><line x1="870.4" y1="0" x2="870.4" y2="1024"/><line x1="921.6" y1="0" x2="921.6" y2="1024"/><line x1="972.8" y1="0" x2="972.8" y2="1024"/><line x1="1024" y1="0" x2="1024" y2="1024"/><line x1="1075.2" y1="0" x2="1075.2" y2="1024"/><line x1="1126.4" y1="0" x2="1126.4" y2="1024"/><line x1="1177.6" y1="0" x2="1177.6" y2="1024"/><line x1="1228.8" y1="0" x2="1228.8" y2="1024"/><line x1="1280" y1="0" x2="1280" y2="1024"/><line x1="1331.2" y1="0" x2="1331.2" y2="1024"/><line x1="1382.4" y1="0" x2="1382.4" y2="1024"/><line x1="1433.6" y1="0" x2="1433.6" y2="1024"/><line x1="1484.8" y1="0" x2="1484.8" y2="1024"/><line x1="0" y1="51.2" x2="1536" y2="51.2"/><line x1="0" y1="102.4" x2="1536" y2="102.4"/><line x1="0" y1="153.6" x2="1536" y2="153.6"/><line x1="0" y1="204.8" x2="1536" y2="204.8"/><line x1="0" y1="256" x2="1536" y2="256"/><line x1="0" y1="307.2" x2="1536" y2="307.2"/><line x1="0" y1="358.4" x2="1536" y2="358.4"/><line x1="0" y1="409.6" x2="1536" y2="409.6"/><line x1="0" y1="460.8" x2="1536" y2="460.8"/><line x1="0" y1="512" x2="1536" y2="512"/><line x1="0" y1="563.2" x2="1536" y2="563.2"/><line x1="0" y1="614.4" x2="1536" y2="614.4"/><line x1="0" y1="665.6" x2="1536" y2="665.6"/><line x1="0" y1="716.8" x2="1536" y2="716.8"/><line x1="0" y1="768" x2="1536" y2="768"/><line x1="0" y1="819.2" x2="1536" y2="819.2"/><line x1="0" y1="870.4" x2="1536" y2="870.4"/><line x1="0" y1="921.6" x2="1536" y2="921.6"/><line x1="0" y1="972.8" x2="1536" y2="972.8"/></g>
<g id="difficult" fill="#f3e3b8" stroke="none"></g>
<g id="fences" stroke="#8a5a2b" stroke-width="4.3" stroke-dasharray="10.2,7.7" stroke-linecap="butt"></g>
<g id="walls" stroke="#111111" stroke-width="7.2" stroke-linecap="round"><line x1="665.6" y1="102.4" x2="1177.6" y2="102.4"/><line x1="665.6" y1="102.4" x2="665.6" y2="256"/><line x1="1177.6" y1="102.4" x2="1177.6" y2="563.2"/><line x1="102.4" y1="153.6" x2="512" y2="153.6"/><line x1="102.4" y1="153.6" x2="102.4" y2="512"/><line x1="512" y1="153.6" x2="512" y2="256"/><line x1="512" y1="256" x2="665.6" y2="256"/><line x1="512" y1="358.4" x2="665.6" y2="358.4"/><line x1="512" y1="358.4" x2="512" y2="512"/><line x1="665.6" y1="358.4" x2="665.6" y2="563.2"/><line x1="102.4" y1="512" x2="204.8" y2="512"/><line x1="307.2" y1="512" x2="512" y2="512"/><line x1="204.8" y1="512" x2="204.8" y2="665.6"/><line x1="307.2" y1="512" x2="307.2" y2="665.6"/><line x1="665.6" y1="563.2" x2="921.6" y2="563.2"/><line x1="1024" y1="563.2" x2="1177.6" y2="563.2"/><line x1="921.6" y1="563.2" x2="921.6" y2="716.8"/><line x1="1024" y1="563.2" x2="1024" y2="716.8"/><line x1="102.4" y1="665.6" x2="204.8" y2="665.6"/><line x1="102.4" y1="665.6" x2="102.4" y2="972.8"/><line x1="307.2" y1="665.6" x2="563.2" y2="665.6"/><line x1="563.2" y1="665.6" x2="563.2" y2="819.2"/><line x1="870.4" y1="716.8" x2="921.6" y2="716.8"/><line x1="870.4" y1="716.8" x2="870.4" y2="819.2"/><line x1="1024" y1="716.8" x2="1433.6" y2="716.8"/><line x1="1433.6" y1="716.8" x2="1433.6" y2="972.8"/><line x1="563.2" y1="819.2" x2="870.4" y2="819.2"/><line x1="563.2" y1="921.6" x2="870.4" y2="921.6"/><line x1="102.4" y1="972.8" x2="563.2" y2="972.8"/><line x1="563.2" y1="921.6" x2="563.2" y2="972.8"/><line x1="870.4" y1="972.8" x2="1433.6" y2="972.8"/><line x1="870.4" y1="921.6" x2="870.4" y2="972.8"/><line x1="250.8" y1="368.6" x2="246.9" y2="380.7"/><line x1="246.9" y1="380.7" x2="236.7" y2="388.1"/><line x1="236.7" y1="388.1" x2="224.1" y2="388.1"/><line x1="224.1" y1="388.1" x2="213.9" y2="380.7"/><line x1="213.9" y1="380.7" x2="210" y2="368.6"/><line x1="210" y1="368.6" x2="213.9" y2="356.6"/><line x1="213.9" y1="356.6" x2="224.1" y2="349.2"/><line x1="224.1" y1="349.2" x2="236.7" y2="349.2"/><line x1="236.7" y1="349.2" x2="246.9" y2="356.6"/><line x1="246.9" y1="356.6" x2="250.8" y2="368.6"/><line x1="419.8" y1="368.6" x2="415.9" y2="380.7"/><line x1="415.9" y1="380.7" x2="405.7" y2="388.1"/><line x1="405.7" y1="388.1" x2="393.1" y2="388.1"/><line x1="393.1" y1="388.1" x2="382.8" y2="380.7"/><line x1="382.8" y1="380.7" x2="378.9" y2="368.6"/><line x1="378.9" y1="368.6" x2="382.8" y2="356.6"/><line x1="382.8" y1="356.6" x2="393.1" y2="349.2"/><line x1="393.1" y1="349.2" x2="405.7" y2="349.2"/><line x1="405.7" y1="349.2" x2="415.9" y2="356.6"/><line x1="415.9" y1="356.6" x2="419.8" y2="368.6"/><line x1="317.4" y1="207.4" x2="419.8" y2="207.4"/><line x1="419.8" y1="207.4" x2="419.8" y2="263.7"/><line x1="419.8" y1="263.7" x2="317.4" y2="263.7"/><line x1="317.4" y1="263.7" x2="317.4" y2="207.4"/><line x1="424.3" y1="431.5" x2="464.5" y2="439.7"/><line x1="464.5" y1="439.7" x2="456.3" y2="479.8"/><line x1="456.3" y1="479.8" x2="416.2" y2="471.7"/><line x1="416.2" y1="471.7" x2="424.3" y2="431.5"/><line x1="167.8" y1="471" x2="162.2" y2="484.7"/><line x1="162.2" y1="484.7" x2="148.5" y2="490.4"/><line x1="148.5" y1="490.4" x2="134.8" y2="484.7"/><line x1="134.8" y1="484.7" x2="129.1" y2="471"/><line x1="129.1" y1="471" x2="134.8" y2="457.4"/><line x1="134.8" y1="457.4" x2="148.5" y2="451.7"/><line x1="148.5" y1="451.7" x2="162.2" y2="457.4"/><line x1="162.2" y1="457.4" x2="167.8" y2="471"/><line x1="788.4" y1="215" x2="784.5" y2="227.1"/><line x1="784.5" y1="227.1" x2="774.3" y2="234.5"/><line x1="774.3" y1="234.5" x2="761.7" y2="234.5"/><line x1="761.7" y1="234.5" x2="751.5" y2="227.1"/><line x1="751.5" y1="227.1" x2="747.6" y2="215"/><line x1="747.6" y1="215" x2="751.5" y2="203"/><line x1="751.5" y1="203" x2="761.7" y2="195.6"/><line x1="761.7" y1="195.6" x2="774.3" y2="195.6"/><line x1="774.3" y1="195.6" x2="784.5" y2="203"/><line x1="784.5" y1="203" x2="788.4" y2="215"/><line x1="1044.4" y1="215" x2="1040.5" y2="227.1"/><line x1="1040.5" y1="227.1" x2="1030.3" y2="234.5"/><line x1="1030.3" y1="234.5" x2="1017.7" y2="234.5"/><line x1="1017.7" y1="234.5" x2="1007.5" y2="227.1"/><line x1="1007.5" y1="227.1" x2="1003.6" y2="215"/><line x1="1003.6" y1="215" x2="1007.5" y2="203"/><line x1="1007.5" y1="203" x2="1017.7" y2="195.6"/><line x1="1017.7" y1="195.6" x2="1030.3" y2="195.6"/><line x1="1030.3" y1="195.6" x2="1040.5" y2="203"/><line x1="1040.5" y1="203" x2="1044.4" y2="215"/><line x1="788.4" y1="430.1" x2="784.5" y2="442.1"/><line x1="784.5" y1="442.1" x2="774.3" y2="449.5"/><line x1="774.3" y1="449.5" x2="761.7" y2="449.5"/><line x1="761.7" y1="449.5" x2="751.5" y2="442.1"/><line x1="751.5" y1="442.1" x2="747.6" y2="430.1"/><line x1="747.6" y1="430.1" x2="751.5" y2="418.1"/><line x1="751.5" y1="418.1" x2="761.7" y2="410.7"/><line x1="761.7" y1="410.7" x2="774.3" y2="410.7"/><line x1="774.3" y1="410.7" x2="784.5" y2="418.1"/><line x1="784.5" y1="418.1" x2="788.4" y2="430.1"/><line x1="1044.4" y1="430.1" x2="1040.5" y2="442.1"/><line x1="1040.5" y1="442.1" x2="1030.3" y2="449.5"/><line x1="1030.3" y1="449.5" x2="1017.7" y2="449.5"/><line x1="1017.7" y1="449.5" x2="1007.5" y2="442.1"/><line x1="1007.5" y1="442.1" x2="1003.6" y2="430.1"/><line x1="1003.6" y1="430.1" x2="1007.5" y2="418.1"/><line x1="1007.5" y1="418.1" x2="1017.7" y2="410.7"/><line x1="1017.7" y1="410.7" x2="1030.3" y2="410.7"/><line x1="1030.3" y1="410.7" x2="1040.5" y2="418.1"/><line x1="1040.5" y1="418.1" x2="1044.4" y2="430.1"/><line x1="819.2" y1="145.9" x2="972.8" y2="145.9"/><line x1="972.8" y1="145.9" x2="972.8" y2="202.2"/><line x1="972.8" y1="202.2" x2="819.2" y2="202.2"/><line x1="819.2" y1="202.2" x2="819.2" y2="145.9"/><line x1="181.8" y1="750.1" x2="289.3" y2="750.1"/><line x1="289.3" y1="750.1" x2="289.3" y2="806.4"/><line x1="289.3" y1="806.4" x2="181.8" y2="806.4"/><line x1="181.8" y1="806.4" x2="181.8" y2="750.1"/><line x1="376.3" y1="750.1" x2="483.8" y2="750.1"/><line x1="483.8" y1="750.1" x2="483.8" y2="806.4"/><line x1="483.8" y1="806.4" x2="376.3" y2="806.4"/><line x1="376.3" y1="806.4" x2="376.3" y2="750.1"/><line x1="181.8" y1="867.8" x2="289.3" y2="867.8"/><line x1="289.3" y1="867.8" x2="289.3" y2="924.2"/><line x1="289.3" y1="924.2" x2="181.8" y2="924.2"/><line x1="181.8" y1="924.2" x2="181.8" y2="867.8"/><line x1="376.3" y1="867.8" x2="483.8" y2="867.8"/><line x1="483.8" y1="867.8" x2="483.8" y2="924.2"/><line x1="483.8" y1="924.2" x2="376.3" y2="924.2"/><line x1="376.3" y1="924.2" x2="376.3" y2="867.8"/><line x1="919.2" y1="750.2" x2="970.1" y2="755.3"/><line x1="970.1" y1="755.3" x2="965" y2="806.3"/><line x1="965" y1="806.3" x2="914.1" y2="801.2"/><line x1="914.1" y1="801.2" x2="919.2" y2="750.2"/><line x1="976.4" y1="780.7" x2="1021.5" y2="771.6"/><line x1="1021.5" y1="771.6" x2="1030.7" y2="816.7"/><line x1="1030.7" y1="816.7" x2="985.5" y2="825.9"/><line x1="985.5" y1="825.9" x2="976.4" y2="780.7"/><line x1="1391.5" y1="773.1" x2="1385.9" y2="786.8"/><line x1="1385.9" y1="786.8" x2="1372.2" y2="792.5"/><line x1="1372.2" y1="792.5" x2="1358.5" y2="786.8"/><line x1="1358.5" y1="786.8" x2="1352.8" y2="773.1"/><line x1="1352.8" y1="773.1" x2="1358.5" y2="759.4"/><line x1="1358.5" y1="759.4" x2="1372.2" y2="753.8"/><line x1="1372.2" y1="753.8" x2="1385.9" y2="759.4"/><line x1="1385.9" y1="759.4" x2="1391.5" y2="773.1"/><line x1="1391.5" y1="829.4" x2="1385.9" y2="843.1"/><line x1="1385.9" y1="843.1" x2="1372.2" y2="848.8"/><line x1="1372.2" y1="848.8" x2="1358.5" y2="843.1"/><line x1="1358.5" y1="843.1" x2="1352.8" y2="829.4"/><line x1="1352.8" y1="829.4" x2="1358.5" y2="815.8"/><line x1="1358.5" y1="815.8" x2="1372.2" y2="810.1"/><line x1="1372.2" y1="810.1" x2="1385.9" y2="815.8"/><line x1="1385.9" y1="815.8" x2="1391.5" y2="829.4"/><line x1="1335.2" y1="773.1" x2="1329.5" y2="786.8"/><line x1="1329.5" y1="786.8" x2="1315.8" y2="792.5"/><line x1="1315.8" y1="792.5" x2="1302.2" y2="786.8"/><line x1="1302.2" y1="786.8" x2="1296.5" y2="773.1"/><line x1="1296.5" y1="773.1" x2="1302.2" y2="759.4"/><line x1="1302.2" y1="759.4" x2="1315.8" y2="753.8"/><line x1="1315.8" y1="753.8" x2="1329.5" y2="759.4"/><line x1="1329.5" y1="759.4" x2="1335.2" y2="773.1"/><line x1="1111" y1="870.4" x2="1244.2" y2="870.4"/><line x1="1244.2" y1="870.4" x2="1244.2" y2="921.6"/><line x1="1244.2" y1="921.6" x2="1111" y2="921.6"/><line x1="1111" y1="921.6" x2="1111" y2="870.4"/><line x1="930.9" y1="898.9" x2="976.8" y2="903.5"/><line x1="976.8" y1="903.5" x2="973.7" y2="934.1"/><line x1="973.7" y1="934.1" x2="927.9" y2="929.5"/><line x1="927.9" y1="929.5" x2="930.9" y2="898.9"/></g>
<g id="doors" stroke="#2f8f4e" stroke-width="5.8" stroke-linecap="butt"><line x1="512" y1="256" x2="512" y2="358.4" data-open="1"/><line x1="665.6" y1="256" x2="665.6" y2="358.4" data-open="1"/><line x1="921.6" y1="563.2" x2="1024" y2="563.2" data-open="1"/><line x1="921.6" y1="716.8" x2="1024" y2="716.8" data-open="1"/><line x1="204.8" y1="512" x2="307.2" y2="512" data-open="0"/><line x1="204.8" y1="665.6" x2="307.2" y2="665.6" data-open="0"/><line x1="563.2" y1="819.2" x2="563.2" y2="921.6" data-open="1"/><line x1="870.4" y1="819.2" x2="870.4" y2="921.6" data-open="0"/></g>
<g id="pins" fill="#d33" stroke="#ffffff" stroke-width="2"><g data-name="start"><circle cx="307" cy="333" r="9.2" class="start"/><circle cx="307" cy="333" r="102.4" class="area"/></g></g>
</svg>
