<?xml version="1.0" encoding="UTF-8"?>
<svg xmlns="http://www.w3.org/2000/svg" viewBox="0 0 2100 1400" width="2100" height="1400" data-set="88e205a5-db90-4e6d-9a16-8765ed207969" data-version="3" data-squares="30" data-feet-per-square="5">
<metadata>{&quot;name&quot;:&quot;Cragmaw Hideout&quot;,&quot;kind&quot;:&quot;battle&quot;,&quot;slug&quot;:&quot;lmop-cragmaw-hideout&quot;,&quot;squares&quot;:30,&quot;picture&quot;:[2100,1400],&quot;layers&quot;:[&quot;walls&quot;,&quot;doors&quot;,&quot;fences&quot;,&quot;difficult&quot;,&quot;pins&quot;,&quot;grid&quot;]}</metadata>
<rect width="2100" height="1400" fill="#ffffff"/>
<g id="grid" stroke="#d6d6d6" stroke-width="1" fill="none"><line x1="70" y1="0" x2="70" y2="1400"/><line x1="140" y1="0" x2="140" y2="1400"/><line x1="210" y1="0" x2="210" y2="1400"/><line x1="280" y1="0" x2="280" y2="1400"/><line x1="350" y1="0" x2="350" y2="1400"/><line x1="420" y1="0" x2="420" y2="1400"/><line x1="490" y1="0" x2="490" y2="1400"/><line x1="560" y1="0" x2="560" y2="1400"/><line x1="630" y1="0" x2="630" y2="1400"/><line x1="700" y1="0" x2="700" y2="1400"/><line x1="770" y1="0" x2="770" y2="1400"/><line x1="840" y1="0" x2="840" y2="1400"/><line x1="910" y1="0" x2="910" y2="1400"/><line x1="980" y1="0" x2="980" y2="1400"/><line x1="1050" y1="0" x2="1050" y2="1400"/><line x1="1120" y1="0" x2="1120" y2="1400"/><line x1="1190" y1="0" x2="1190" y2="1400"/><line x1="1260" y1="0" x2="1260" y2="1400"/><line x1="1330" y1="0" x2="1330" y2="1400"/><line x1="1400" y1="0" x2="1400" y2="1400"/><line x1="1470" y1="0" x2="1470" y2="1400"/><line x1="1540" y1="0" x2="1540" y2="1400"/><line x1="1610" y1="0" x2="1610" y2="1400"/><line x1="1680" y1="0" x2="1680" y2="1400"/><line x1="1750" y1="0" x2="1750" y2="1400"/><line x1="1820" y1="0" x2="1820" y2="1400"/><line x1="1890" y1="0" x2="1890" y2="1400"/><line x1="1960" y1="0" x2="1960" y2="1400"/><line x1="2030" y1="0" x2="2030" y2="1400"/><line x1="0" y1="70" x2="2100" y2="70"/><line x1="0" y1="140" x2="2100" y2="140"/><line x1="0" y1="210" x2="2100" y2="210"/><line x1="0" y1="280" x2="2100" y2="280"/><line x1="0" y1="350" x2="2100" y2="350"/><line x1="0" y1="420" x2="2100" y2="420"/><line x1="0" y1="490" x2="2100" y2="490"/><line x1="0" y1="560" x2="2100" y2="560"/><line x1="0" y1="630" x2="2100" y2="630"/><line x1="0" y1="700" x2="2100" y2="700"/><line x1="0" y1="770" x2="2100" y2="770"/><line x1="0" y1="840" x2="2100" y2="840"/><line x1="0" y1="910" x2="2100" y2="910"/><line x1="0" y1="980" x2="2100" y2="980"/><line x1="0" y1="1050" x2="2100" y2="1050"/><line x1="0" y1="1120" x2="2100" y2="1120"/><line x1="0" y1="1190" x2="2100" y2="1190"/><line x1="0" y1="1260" x2="2100" y2="1260"/><line x1="0" y1="1330" x2="2100" y2="1330"/></g>
<g id="difficult" fill="#f3e3b8" stroke="none"><rect x="140" y="140" width="140" height="70"/><rect x="560" y="350" width="210" height="70"/><rect x="1190" y="770" width="70" height="70"/><rect x="1260" y="840" width="140" height="70"/><rect x="0" y="980" width="630" height="70"/><rect x="0" y="1050" width="560" height="70"/><rect x="0" y="1120" width="280" height="70"/><rect x="840" y="1190" width="140" height="140"/><rect x="0" y="1260" width="280" height="140"/><rect x="1050" y="1330" width="350" height="70"/></g>
<g id="fences" stroke="#8a5a2b" stroke-width="5.9" stroke-dasharray="14,10.5" stroke-linecap="butt"></g>
<g id="walls" stroke="#111111" stroke-width="9.8" stroke-linecap="round"><line x1="0" y1="976.8" x2="149" y2="963"/><line x1="149" y1="963" x2="175" y2="954"/><line x1="175" y1="954" x2="429" y2="963"/><line x1="429" y1="963" x2="499" y2="954"/><line x1="499" y1="954" x2="586" y2="893"/><line x1="586" y1="893" x2="639" y2="875"/><line x1="639" y1="875" x2="744" y2="875"/><line x1="744" y1="875" x2="770" y2="840"/><line x1="770" y1="840" x2="744" y2="761"/><line x1="744" y1="761" x2="744" y2="691"/><line x1="744" y1="691" x2="770" y2="630"/><line x1="770" y1="630" x2="779" y2="586"/><line x1="779" y1="586" x2="779" y2="508"/><line x1="779" y1="508" x2="735" y2="464"/><line x1="735" y1="464" x2="665" y2="473"/><line x1="665" y1="473" x2="569" y2="429"/><line x1="569" y1="429" x2="490" y2="376"/><line x1="490" y1="376" x2="438" y2="359"/><line x1="438" y1="359" x2="385" y2="376"/><line x1="385" y1="376" x2="376" y2="429"/><line x1="376" y1="429" x2="394" y2="481"/><line x1="394" y1="481" x2="438" y2="534"/><line x1="438" y1="534" x2="508" y2="560"/><line x1="508" y1="560" x2="595" y2="578"/><line x1="595" y1="578" x2="639" y2="595"/><line x1="639" y1="595" x2="665" y2="630"/><line x1="665" y1="630" x2="648" y2="691"/><line x1="648" y1="691" x2="604" y2="726"/><line x1="604" y1="726" x2="508" y2="735"/><line x1="508" y1="735" x2="420" y2="726"/><line x1="420" y1="726" x2="359" y2="709"/><line x1="359" y1="709" x2="289" y2="744"/><line x1="289" y1="744" x2="236" y2="735"/><line x1="236" y1="735" x2="201" y2="700"/><line x1="201" y1="700" x2="166" y2="656"/><line x1="166" y1="656" x2="88" y2="595"/><line x1="88" y1="595" x2="53" y2="543"/><line x1="53" y1="543" x2="18" y2="473"/><line x1="18" y1="473" x2="0" y2="411"/><line x1="0" y1="411" x2="9" y2="341"/><line x1="9" y1="341" x2="26" y2="280"/><line x1="26" y1="280" x2="44" y2="210"/><line x1="44" y1="210" x2="88" y2="158"/><line x1="88" y1="158" x2="166" y2="131"/><line x1="166" y1="131" x2="271" y2="114"/><line x1="271" y1="114" x2="324" y2="158"/><line x1="324" y1="158" x2="385" y2="210"/><line x1="385" y1="210" x2="455" y2="210"/><line x1="455" y1="210" x2="534" y2="184"/><line x1="534" y1="184" x2="586" y2="140"/><line x1="586" y1="140" x2="656" y2="88"/><line x1="656" y1="88" x2="718" y2="18"/><line x1="718" y1="18" x2="788" y2="0"/><line x1="788" y1="0" x2="893" y2="0"/><line x1="893" y1="0" x2="963" y2="9"/><line x1="963" y1="9" x2="998" y2="35"/><line x1="998" y1="35" x2="1033" y2="79"/><line x1="1033" y1="79" x2="1076" y2="140"/><line x1="1076" y1="140" x2="1120" y2="193"/><line x1="1120" y1="193" x2="1190" y2="210"/><line x1="1190" y1="210" x2="1234" y2="201"/><line x1="1234" y1="201" x2="1286" y2="166"/><line x1="1286" y1="166" x2="1391" y2="88"/><line x1="1391" y1="88" x2="1496" y2="53"/><line x1="1496" y1="53" x2="1523" y2="53"/><line x1="1523" y1="53" x2="1671" y2="96"/><line x1="1671" y1="96" x2="1785" y2="88"/><line x1="1785" y1="88" x2="1838" y2="79"/><line x1="1838" y1="79" x2="1978" y2="70"/><line x1="1978" y1="70" x2="2039" y2="123"/><line x1="2039" y1="123" x2="2056" y2="245"/><line x1="2056" y1="245" x2="2074" y2="394"/><line x1="2074" y1="394" x2="2100" y2="455"/><line x1="2100" y1="455" x2="2074" y2="621"/><line x1="2074" y1="621" x2="1978" y2="674"/><line x1="1978" y1="674" x2="1890" y2="709"/><line x1="1890" y1="709" x2="1846" y2="753"/><line x1="1846" y1="753" x2="1803" y2="823"/><line x1="1803" y1="823" x2="1864" y2="901"/><line x1="1864" y1="901" x2="1943" y2="901"/><line x1="1943" y1="901" x2="1995" y2="919"/><line x1="1995" y1="919" x2="2039" y2="963"/><line x1="2039" y1="963" x2="2048" y2="1024"/><line x1="2048" y1="1024" x2="2048" y2="1094"/><line x1="2048" y1="1094" x2="2013" y2="1173"/><line x1="2013" y1="1173" x2="1934" y2="1181"/><line x1="1934" y1="1181" x2="1846" y2="1199"/><line x1="1846" y1="1199" x2="1776" y2="1208"/><line x1="1776" y1="1208" x2="1724" y2="1216"/><line x1="1724" y1="1216" x2="1689" y2="1199"/><line x1="1689" y1="1199" x2="1671" y2="1155"/><line x1="1671" y1="1155" x2="1601" y2="1103"/><line x1="1601" y1="1103" x2="1523" y2="1059"/><line x1="1523" y1="1059" x2="1444" y2="1076"/><line x1="1444" y1="1076" x2="1356" y2="1076"/><line x1="1356" y1="1076" x2="1348" y2="1006"/><line x1="1348" y1="1006" x2="1348" y2="919"/><line x1="1348" y1="919" x2="1295" y2="875"/><line x1="1295" y1="875" x2="1181" y2="884"/><line x1="1181" y1="884" x2="1076" y2="884"/><line x1="1076" y1="884" x2="954" y2="849"/><line x1="954" y1="849" x2="936" y2="893"/><line x1="936" y1="893" x2="936" y2="989"/><line x1="936" y1="989" x2="1006" y2="1068"/><line x1="1006" y1="1068" x2="1068" y2="1103"/><line x1="1068" y1="1103" x2="1146" y2="1094"/><line x1="1146" y1="1094" x2="1243" y2="1129"/><line x1="1243" y1="1129" x2="1295" y2="1164"/><line x1="1295" y1="1164" x2="1356" y2="1155"/><line x1="1356" y1="1155" x2="1435" y2="1199"/><line x1="1435" y1="1199" x2="1488" y2="1251"/><line x1="1488" y1="1251" x2="1549" y2="1304"/><line x1="1549" y1="1304" x2="1610" y2="1356"/><line x1="1610" y1="1356" x2="1671" y2="1374"/><line x1="1671" y1="1374" x2="1706" y2="1400"/><line x1="578" y1="271" x2="648" y2="210"/><line x1="648" y1="210" x2="683" y2="210"/><line x1="683" y1="210" x2="788" y2="149"/><line x1="788" y1="149" x2="884" y2="140"/><line x1="884" y1="140" x2="945" y2="193"/><line x1="945" y1="193" x2="980" y2="280"/><line x1="980" y1="280" x2="963" y2="315"/><line x1="963" y1="315" x2="866" y2="368"/><line x1="866" y1="368" x2="796" y2="368"/><line x1="796" y1="368" x2="718" y2="324"/><line x1="718" y1="324" x2="639" y2="315"/><line x1="639" y1="315" x2="595" y2="298"/><line x1="595" y1="298" x2="578" y2="271"/><line x1="919" y1="621" x2="928" y2="604"/><line x1="928" y1="604" x2="980" y2="516"/><line x1="980" y1="516" x2="1059" y2="481"/><line x1="1059" y1="481" x2="1164" y2="490"/><line x1="1164" y1="490" x2="1225" y2="508"/><line x1="1225" y1="508" x2="1278" y2="525"/><line x1="1278" y1="525" x2="1348" y2="534"/><line x1="1348" y1="534" x2="1391" y2="499"/><line x1="1391" y1="499" x2="1418" y2="464"/><line x1="1418" y1="464" x2="1514" y2="446"/><line x1="1514" y1="446" x2="1575" y2="464"/><line x1="1575" y1="464" x2="1628" y2="508"/><line x1="1628" y1="508" x2="1680" y2="569"/><line x1="1680" y1="569" x2="1671" y2="648"/><line x1="1671" y1="648" x2="1619" y2="683"/><line x1="1619" y1="683" x2="1558" y2="648"/><line x1="1558" y1="648" x2="1523" y2="595"/><line x1="1523" y1="595" x2="1461" y2="569"/><line x1="1461" y1="569" x2="1435" y2="613"/><line x1="1435" y1="613" x2="1409" y2="683"/><line x1="1409" y1="683" x2="1444" y2="753"/><line x1="1444" y1="753" x2="1444" y2="796"/><line x1="1444" y1="796" x2="1383" y2="831"/><line x1="1383" y1="831" x2="1330" y2="814"/><line x1="1330" y1="814" x2="1269" y2="753"/><line x1="1269" y1="753" x2="1251" y2="718"/><line x1="1251" y1="718" x2="1225" y2="639"/><line x1="1225" y1="639" x2="1181" y2="586"/><line x1="1181" y1="586" x2="1129" y2="560"/><line x1="1129" y1="560" x2="1085" y2="569"/><line x1="1085" y1="569" x2="1076" y2="630"/><line x1="1076" y1="630" x2="1033" y2="691"/><line x1="1033" y1="691" x2="963" y2="700"/><line x1="963" y1="700" x2="928" y2="691"/><line x1="928" y1="691" x2="919" y2="656"/><line x1="919" y1="656" x2="919" y2="621"/><line x1="1339" y1="315" x2="1356" y2="306"/><line x1="1356" y1="306" x2="1409" y2="271"/><line x1="1409" y1="271" x2="1461" y2="236"/><line x1="1461" y1="236" x2="1540" y2="254"/><line x1="1540" y1="254" x2="1531" y2="341"/><line x1="1531" y1="341" x2="1488" y2="368"/><line x1="1488" y1="368" x2="1409" y2="394"/><line x1="1409" y1="394" x2="1374" y2="411"/><line x1="1374" y1="411" x2="1321" y2="385"/><line x1="1321" y1="385" x2="1295" y2="359"/><line x1="1295" y1="359" x2="1304" y2="324"/><line x1="1304" y1="324" x2="1339" y2="315"/><line x1="1654" y1="193" x2="1680" y2="210"/><line x1="1680" y1="210" x2="1733" y2="254"/><line x1="1733" y1="254" x2="1715" y2="289"/><line x1="1715" y1="289" x2="1663" y2="298"/><line x1="1663" y1="298" x2="1619" y2="263"/><line x1="1619" y1="263" x2="1628" y2="210"/><line x1="1628" y1="210" x2="1628" y2="193"/><line x1="1628" y1="193" x2="1654" y2="193"/><line x1="18" y1="376" x2="79" y2="394"/><line x1="210" y1="438" x2="263" y2="446"/><line x1="263" y1="446" x2="306" y2="446"/><line x1="306" y1="446" x2="368" y2="411"/><line x1="516" y1="376" x2="595" y2="324"/><line x1="718" y1="446" x2="735" y2="359"/><line x1="1313" y1="875" x2="1330" y2="831"/></g>
<g id="doors" stroke="#2f8f4e" stroke-width="7.8" stroke-linecap="butt"></g>
<g id="pins" fill="#d33" stroke="#ffffff" stroke-width="2"><g data-name="start"><circle cx="122" cy="1196" r="12.6" class="start"/><circle cx="122" cy="1196" r="140" class="area"/></g><g data-name="cave-mouth"><circle cx="887" cy="946" r="12.6"/></g><g data-name="area-1"><circle cx="570" cy="1200" r="12.6"/></g><g data-name="area-2"><circle cx="1074" cy="1187" r="12.6"/></g><g data-name="area-3"><circle cx="1113" cy="799" r="12.6"/></g><g data-name="area-4"><circle cx="842" cy="431" r="12.6"/></g><g data-name="area-5"><circle cx="1181" cy="206" r="12.6"/></g><g data-name="area-6"><circle cx="189" cy="365" r="12.6"/></g><g data-name="area-8"><circle cx="1695" cy="975" r="12.6"/></g><g data-name="area-7"><circle cx="1648" cy="445" r="12.6"/></g></g>
</svg>
