<?xml version="1.0" encoding="UTF-8"?>
<svg xmlns="http://www.w3.org/2000/svg" viewBox="0 0 1536 1024" width="1536" height="1024" data-set="12dd68b3-0e58-40e8-b22c-4a42ec3b5fc4" data-version="38" data-squares="30" data-feet-per-square="5">
<metadata>{&quot;name&quot;:&quot;Agatha's Lair&quot;,&quot;kind&quot;:&quot;battle&quot;,&quot;slug&quot;:&quot;vtt-agathas-lair&quot;,&quot;squares&quot;:30,&quot;picture&quot;:[1536,1024],&quot;layers&quot;:[&quot;walls&quot;,&quot;doors&quot;,&quot;fences&quot;,&quot;difficult&quot;,&quot;pins&quot;,&quot;grid&quot;]}</metadata>
<rect width="1536" height="1024" fill="#ffffff"/>
<g id="grid" stroke="#d6d6d6" stroke-width="1" fill="none"><line x1="51.2" y1="0" x2="51.2" y2="1024"/><line x1="102.4" y1="0" x2="102.4" y2="1024"/><line x1="153.6" y1="0" x2="153.6" y2="1024"/><line x1="204.8" y1="0" x2="204.8" y2="1024"/><line x1="256" y1="0" x2="256" y2="1024"/><line x1="307.2" y1="0" x2="307.2" y2="1024"/><line x1="358.4" y1="0" x2="358.4" y2="1024"/><line x1="409.6" y1="0" x2="409.6" y2="1024"/><line x1="460.8" y1="0" x2="460.8" y2="1024"/><line x1="512" y1="0" x2="512" y2="1024"/><line x1="563.2" y1="0" x2="563.2" y2="1024"/><line x1="614.4" y1="0" x2="614.4" y2="1024"/><line x1="665.6" y1="0" x2="665.6" y2="1024"/><line x1="716.8" y1="0" x2="716.8" y2="1024"/><line x1="768" y1="0" x2="768" y2="1024"/><line x1="819.2" y1="0" x2="819.2" y2="1024"/><line x1="870.4" y1="0" x2="870.4" y2="1024"/><line x1="921.6" y1="0" x2="921.6" y2="1024"/><line x1="972.8" y1="0" x2="972.8" y2="1024"/><line x1="1024" y1="0" x2="1024" y2="1024"/><line x1="1075.2" y1="0" x2="1075.2" y2="1024"/><line x1="1126.4" y1="0" x2="1126.4" y2="1024"/><line x1="1177.6" y1="0" x2="1177.6" y2="1024"/><line x1="1228.8" y1="0" x2="1228.8" y2="1024"/><line x1="1280" y1="0" x2="1280" y2="1024"/><line x1="1331.2" y1="0" x2="1331.2" y2="1024"/><line x1="1382.4" y1="0" x2="1382.4" y2="1024"/><line x1="1433.6" y1="0" x2="1433.6" y2="1024"/><line x1="1484.8" y1="0" x2="1484.8" y2="1024"/><line x1="0" y1="51.2" x2="1536" y2="51.2"/><line x1="0" y1="102.4" x2="1536" y2="102.4"/><line x1="0" y1="153.6" x2="1536" y2="153.6"/><line x1="0" y1="204.8" x2="1536" y2="204.8"/><line x1="0" y1="256" x2="1536" y2="256"/><line x1="0" y1="307.2" x2="1536" y2="307.2"/><line x1="0" y1="358.4" x2="1536" y2="358.4"/><line x1="0" y1="409.6" x2="1536" y2="409.6"/><line x1="0" y1="460.8" x2="1536" y2="460.8"/><line x1="0" y1="512" x2="1536" y2="512"/><line x1="0" y1="563.2" x2="1536" y2="563.2"/><line x1="0" y1="614.4" x2="1536" y2="614.4"/><line x1="0" y1="665.6" x2="1536" y2="665.6"/><line x1="0" y1="716.8" x2="1536" y2="716.8"/><line x1="0" y1="768" x2="1536" y2="768"/><line x1="0" y1="819.2" x2="1536" y2="819.2"/><line x1="0" y1="870.4" x2="1536" y2="870.4"/><line x1="0" y1="921.6" x2="1536" y2="921.6"/><line x1="0" y1="972.8" x2="1536" y2="972.8"/></g>
<g id="difficult" fill="#f3e3b8" stroke="none"></g>
<g id="fences" stroke="#8a5a2b" stroke-width="4.3" stroke-dasharray="10.2,7.7" stroke-linecap="butt"><line x1="891" y1="392" x2="878.4" y2="428.4"/><line x1="878.4" y1="428.4" x2="845.4" y2="451"/><line x1="845.4" y1="451" x2="804.6" y2="451"/><line x1="804.6" y1="451" x2="771.6" y2="428.4"/><line x1="771.6" y1="428.4" x2="759" y2="392"/><line x1="759" y1="392" x2="771.6" y2="355.6"/><line x1="771.6" y1="355.6" x2="804.6" y2="333"/><line x1="804.6" y1="333" x2="845.4" y2="333"/><line x1="845.4" y1="333" x2="878.4" y2="355.6"/><line x1="878.4" y1="355.6" x2="891" y2="392"/><line x1="612" y1="352" x2="684" y2="352"/><line x1="684" y1="352" x2="684" y2="472"/><line x1="684" y1="472" x2="612" y2="472"/><line x1="612" y1="472" x2="612" y2="352"/><line x1="642" y1="508" x2="726" y2="508"/><line x1="726" y1="508" x2="726" y2="572"/><line x1="726" y1="572" x2="642" y2="572"/><line x1="642" y1="572" x2="642" y2="508"/><line x1="676" y1="238" x2="800" y2="238"/><line x1="800" y1="238" x2="800" y2="288"/><line x1="800" y1="288" x2="676" y2="288"/><line x1="676" y1="288" x2="676" y2="238"/><line x1="1000.2" y1="318.7" x2="945.7" y2="336.3"/><line x1="945.7" y1="336.3" x2="882" y2="329.7"/><line x1="882" y1="329.7" x2="846.5" y2="302.7"/><line x1="846.5" y1="302.7" x2="859.8" y2="271.3"/><line x1="859.8" y1="271.3" x2="914.3" y2="253.7"/><line x1="914.3" y1="253.7" x2="978" y2="260.3"/><line x1="978" y1="260.3" x2="1013.5" y2="287.3"/><line x1="1013.5" y1="287.3" x2="1000.2" y2="318.7"/><line x1="960" y1="420" x2="1056" y2="420"/><line x1="1056" y1="420" x2="1056" y2="580"/><line x1="1056" y1="580" x2="960" y2="580"/><line x1="960" y1="580" x2="960" y2="420"/></g>
<g id="walls" stroke="#111111" stroke-width="7.2" stroke-linecap="round"><line x1="1110" y1="402" x2="1103" y2="459.4"/><line x1="1103" y1="459.4" x2="1082.2" y2="513.9"/><line x1="1082.2" y1="513.9" x2="1048.7" y2="562.9"/><line x1="1048.7" y1="562.9" x2="1004.2" y2="603.7"/><line x1="1004.2" y1="603.7" x2="950.9" y2="634.4"/><line x1="950.9" y1="634.4" x2="891.5" y2="653.5"/><line x1="891.5" y1="653.5" x2="884.8" y2="654.9"/><line x1="773.2" y1="654.9" x2="766.5" y2="653.5"/><line x1="766.5" y1="653.5" x2="707.1" y2="634.4"/><line x1="707.1" y1="634.4" x2="653.8" y2="603.7"/><line x1="653.8" y1="603.7" x2="609.3" y2="562.9"/><line x1="609.3" y1="562.9" x2="575.8" y2="513.9"/><line x1="575.8" y1="513.9" x2="555" y2="459.4"/><line x1="555" y1="459.4" x2="548" y2="402"/><line x1="548" y1="402" x2="555" y2="344.6"/><line x1="555" y1="344.6" x2="575.8" y2="290.1"/><line x1="575.8" y1="290.1" x2="609.3" y2="241.1"/><line x1="609.3" y1="241.1" x2="653.8" y2="200.3"/><line x1="653.8" y1="200.3" x2="707.1" y2="169.6"/><line x1="707.1" y1="169.6" x2="766.5" y2="150.5"/><line x1="766.5" y1="150.5" x2="829" y2="144"/><line x1="829" y1="144" x2="891.5" y2="150.5"/><line x1="891.5" y1="150.5" x2="950.9" y2="169.6"/><line x1="950.9" y1="169.6" x2="1004.2" y2="200.3"/><line x1="1004.2" y1="200.3" x2="1048.7" y2="241.1"/><line x1="1048.7" y1="241.1" x2="1082.2" y2="290.1"/><line x1="1082.2" y1="290.1" x2="1103" y2="344.6"/><line x1="1103" y1="344.6" x2="1110" y2="402"/><line x1="353" y1="150" x2="333.2" y2="224"/><line x1="333.2" y1="224" x2="279" y2="278.2"/><line x1="279" y1="278.2" x2="205" y2="298"/><line x1="205" y1="298" x2="131" y2="278.2"/><line x1="131" y1="278.2" x2="76.8" y2="224"/><line x1="76.8" y1="224" x2="57" y2="150"/><line x1="57" y1="150" x2="76.8" y2="76"/><line x1="76.8" y1="76" x2="131" y2="21.8"/><line x1="131" y1="21.8" x2="205" y2="2"/><line x1="205" y1="2" x2="279" y2="21.8"/><line x1="279" y1="21.8" x2="333.2" y2="76"/><line x1="333.2" y1="76" x2="353" y2="150"/><line x1="590" y1="75" x2="575.9" y2="127.5"/><line x1="575.9" y1="127.5" x2="537.5" y2="165.9"/><line x1="537.5" y1="165.9" x2="485" y2="180"/><line x1="485" y1="180" x2="432.5" y2="165.9"/><line x1="432.5" y1="165.9" x2="394.1" y2="127.5"/><line x1="394.1" y1="127.5" x2="380" y2="75"/><line x1="380" y1="75" x2="394.1" y2="22.5"/><line x1="394.1" y1="22.5" x2="432.5" y2="-15.9"/><line x1="432.5" y1="-15.9" x2="485" y2="-30"/><line x1="485" y1="-30" x2="537.5" y2="-15.9"/><line x1="537.5" y1="-15.9" x2="575.9" y2="22.5"/><line x1="575.9" y1="22.5" x2="590" y2="75"/><line x1="1350" y1="115" x2="1331.9" y2="182.5"/><line x1="1331.9" y1="182.5" x2="1282.5" y2="231.9"/><line x1="1282.5" y1="231.9" x2="1215" y2="250"/><line x1="1215" y1="250" x2="1147.5" y2="231.9"/><line x1="1147.5" y1="231.9" x2="1098.1" y2="182.5"/><line x1="1098.1" y1="182.5" x2="1080" y2="115"/><line x1="1080" y1="115" x2="1098.1" y2="47.5"/><line x1="1098.1" y1="47.5" x2="1147.5" y2="-1.9"/><line x1="1147.5" y1="-1.9" x2="1215" y2="-20"/><line x1="1215" y1="-20" x2="1282.5" y2="-1.9"/><line x1="1282.5" y1="-1.9" x2="1331.9" y2="47.5"/><line x1="1331.9" y1="47.5" x2="1350" y2="115"/><line x1="1570" y1="215" x2="1560.6" y2="250"/><line x1="1560.6" y1="250" x2="1535" y2="275.6"/><line x1="1535" y1="275.6" x2="1500" y2="285"/><line x1="1500" y1="285" x2="1465" y2="275.6"/><line x1="1465" y1="275.6" x2="1439.4" y2="250"/><line x1="1439.4" y1="250" x2="1430" y2="215"/><line x1="1430" y1="215" x2="1439.4" y2="180"/><line x1="1439.4" y1="180" x2="1465" y2="154.4"/><line x1="1465" y1="154.4" x2="1500" y2="145"/><line x1="1500" y1="145" x2="1535" y2="154.4"/><line x1="1535" y1="154.4" x2="1560.6" y2="180"/><line x1="1560.6" y1="180" x2="1570" y2="215"/><line x1="302" y1="410" x2="284.3" y2="476"/><line x1="284.3" y1="476" x2="236" y2="524.3"/><line x1="236" y1="524.3" x2="170" y2="542"/><line x1="170" y1="542" x2="104" y2="524.3"/><line x1="104" y1="524.3" x2="55.7" y2="476"/><line x1="55.7" y1="476" x2="38" y2="410"/><line x1="38" y1="410" x2="55.7" y2="344"/><line x1="55.7" y1="344" x2="104" y2="295.7"/><line x1="104" y1="295.7" x2="170" y2="278"/><line x1="170" y1="278" x2="236" y2="295.7"/><line x1="236" y1="295.7" x2="284.3" y2="344"/><line x1="284.3" y1="344" x2="302" y2="410"/><line x1="1575" y1="390" x2="1560.9" y2="442.5"/><line x1="1560.9" y1="442.5" x2="1522.5" y2="480.9"/><line x1="1522.5" y1="480.9" x2="1470" y2="495"/><line x1="1470" y1="495" x2="1417.5" y2="480.9"/><line x1="1417.5" y1="480.9" x2="1379.1" y2="442.5"/><line x1="1379.1" y1="442.5" x2="1365" y2="390"/><line x1="1365" y1="390" x2="1379.1" y2="337.5"/><line x1="1379.1" y1="337.5" x2="1417.5" y2="299.1"/><line x1="1417.5" y1="299.1" x2="1470" y2="285"/><line x1="1470" y1="285" x2="1522.5" y2="299.1"/><line x1="1522.5" y1="299.1" x2="1560.9" y2="337.5"/><line x1="1560.9" y1="337.5" x2="1575" y2="390"/><line x1="1478" y1="830" x2="1458.2" y2="904"/><line x1="1458.2" y1="904" x2="1404" y2="958.2"/><line x1="1404" y1="958.2" x2="1330" y2="978"/><line x1="1330" y1="978" x2="1256" y2="958.2"/><line x1="1256" y1="958.2" x2="1201.8" y2="904"/><line x1="1201.8" y1="904" x2="1182" y2="830"/><line x1="1182" y1="830" x2="1201.8" y2="756"/><line x1="1201.8" y1="756" x2="1256" y2="701.8"/><line x1="1256" y1="701.8" x2="1330" y2="682"/><line x1="1330" y1="682" x2="1404" y2="701.8"/><line x1="1404" y1="701.8" x2="1458.2" y2="756"/><line x1="1458.2" y1="756" x2="1478" y2="830"/><line x1="1550" y1="960" x2="1540.6" y2="995"/><line x1="1540.6" y1="995" x2="1515" y2="1020.6"/><line x1="1515" y1="1020.6" x2="1480" y2="1030"/><line x1="1480" y1="1030" x2="1445" y2="1020.6"/><line x1="1445" y1="1020.6" x2="1419.4" y2="995"/><line x1="1419.4" y1="995" x2="1410" y2="960"/><line x1="1410" y1="960" x2="1419.4" y2="925"/><line x1="1419.4" y1="925" x2="1445" y2="899.4"/><line x1="1445" y1="899.4" x2="1480" y2="890"/><line x1="1480" y1="890" x2="1515" y2="899.4"/><line x1="1515" y1="899.4" x2="1540.6" y2="925"/><line x1="1540.6" y1="925" x2="1550" y2="960"/><line x1="190" y1="640" x2="184.6" y2="660"/><line x1="184.6" y1="660" x2="170" y2="674.6"/><line x1="170" y1="674.6" x2="150" y2="680"/><line x1="150" y1="680" x2="130" y2="674.6"/><line x1="130" y1="674.6" x2="115.4" y2="660"/><line x1="115.4" y1="660" x2="110" y2="640"/><line x1="110" y1="640" x2="115.4" y2="620"/><line x1="115.4" y1="620" x2="130" y2="605.4"/><line x1="130" y1="605.4" x2="150" y2="600"/><line x1="150" y1="600" x2="170" y2="605.4"/><line x1="170" y1="605.4" x2="184.6" y2="620"/><line x1="184.6" y1="620" x2="190" y2="640"/><line x1="383.1" y1="622.6" x2="381.9" y2="667.4"/><line x1="381.9" y1="667.4" x2="327.9" y2="686.7"/><line x1="326.9" y1="687.4" x2="276.8" y2="666.4"/><line x1="276.8" y1="666.4" x2="272" y2="618"/><line x1="272" y1="618" x2="286.1" y2="589.7"/><line x1="286.1" y1="589.7" x2="320" y2="578"/><line x1="320" y1="578" x2="353.9" y2="589.7"/><line x1="353.9" y1="589.7" x2="383.1" y2="622.6"/><line x1="1422" y1="240" x2="1409.7" y2="265.5"/><line x1="1409.7" y1="265.5" x2="1380" y2="276"/><line x1="1380" y1="276" x2="1350.3" y2="265.5"/><line x1="1350.3" y1="265.5" x2="1338" y2="240"/><line x1="1338" y1="240" x2="1350.3" y2="214.5"/><line x1="1350.3" y1="214.5" x2="1380" y2="204"/><line x1="1380" y1="204" x2="1409.7" y2="214.5"/><line x1="1409.7" y1="214.5" x2="1422" y2="240"/><line x1="1380" y1="555" x2="1365.4" y2="581.9"/><line x1="1365.4" y1="581.9" x2="1330" y2="593"/><line x1="1330" y1="593" x2="1294.6" y2="581.9"/><line x1="1294.6" y1="581.9" x2="1280" y2="555"/><line x1="1280" y1="555" x2="1294.6" y2="528.1"/><line x1="1294.6" y1="528.1" x2="1330" y2="517"/><line x1="1330" y1="517" x2="1365.4" y2="528.1"/><line x1="1365.4" y1="528.1" x2="1380" y2="555"/><line x1="1228" y1="765" x2="1216.9" y2="789"/><line x1="1216.9" y1="789" x2="1190" y2="799"/><line x1="1190" y1="799" x2="1163.1" y2="789"/><line x1="1163.1" y1="789" x2="1152" y2="765"/><line x1="1152" y1="765" x2="1163.1" y2="741"/><line x1="1163.1" y1="741" x2="1190" y2="731"/><line x1="1190" y1="731" x2="1216.9" y2="741"/><line x1="1216.9" y1="741" x2="1228" y2="765"/><line x1="98" y1="590" x2="86.9" y2="614"/><line x1="86.9" y1="614" x2="60" y2="624"/><line x1="60" y1="624" x2="33.1" y2="614"/><line x1="33.1" y1="614" x2="22" y2="590"/><line x1="22" y1="590" x2="33.1" y2="566"/><line x1="33.1" y1="566" x2="60" y2="556"/><line x1="60" y1="556" x2="86.9" y2="566"/><line x1="86.9" y1="566" x2="98" y2="590"/></g>
<g id="doors" stroke="#2f8f4e" stroke-width="5.8" stroke-linecap="butt"><line x1="884.8" y1="654.9" x2="773.2" y2="654.9" data-open="1"/></g>
<g id="pins" fill="#d33" stroke="#ffffff" stroke-width="2"><g data-name="start"><circle cx="690" cy="960" r="9.2" class="start"/><circle cx="690" cy="960" r="102.4" class="area"/></g><g data-name="lair-door"><circle cx="840" cy="662" r="9.2"/></g><g data-name="agathas-home"><circle cx="830" cy="410" r="9.2"/></g></g>
</svg>
